<?xml version="1.0" encoding="utf-8"?>
<!-- Generator: Adobe Illustrator 19.0.0, SVG Export Plug-In . SVG Version: 6.00 Build 0)  -->
<svg version="1.1" id="Layer_3" xmlns="http://www.w3.org/2000/svg" xmlns:xlink="http://www.w3.org/1999/xlink" x="0px" y="0px"
	 width="23.7px" height="23.6px" viewBox="0 0 23.7 23.6" style="enable-background:new 0 0 23.7 23.6;" xml:space="preserve">
<style type="text/css">
	.st0{fill:#F2EEE8;}
</style>
<g>
	<g>
		<g>
			<g>
				<path class="st0" d="M2.7,23.6c-1.4,0-2.4-0.7-2.7-1.9c-0.3-1.9,1.6-3.9,3.6-4.8c0.9-0.4,1.8-0.6,2.6-0.6c1.4,0,2.4,0.7,2.7,1.9
					C9.2,20,7.3,22,5.3,22.9C4.4,23.3,3.5,23.6,2.7,23.6L2.7,23.6z M6.2,18.2c-0.5,0-1.1,0.2-1.7,0.5c-1.6,0.8-2.6,2.1-2.5,2.7
					c0,0.2,0.4,0.2,0.7,0.2c0.5,0,1.1-0.2,1.7-0.5C6.1,20.3,7,19,6.9,18.4C6.9,18.3,6.5,18.2,6.2,18.2L6.2,18.2z"/>
			</g>
			<g>
				<polygon class="st0" points="8.9,18.3 6.9,18.3 6.9,4.6 8.9,4.6 8.9,18.3 				"/>
			</g>
		</g>
		<g>
			<g>
				<path class="st0" d="M17.4,20c-1.4,0-2.4-0.7-2.7-1.9c-0.3-1.9,1.6-3.9,3.6-4.8c0.9-0.4,1.8-0.6,2.6-0.6c1.4,0,2.4,0.7,2.7,1.9
					c0.3,1.9-1.6,3.9-3.6,4.8C19.1,19.7,18.2,20,17.4,20L17.4,20z M21,14.6c-0.5,0-1.1,0.2-1.7,0.5c-1.6,0.8-2.6,2.1-2.5,2.7
					c0,0.2,0.4,0.2,0.7,0.2c0.5,0,1.1-0.2,1.7-0.5c1.6-0.8,2.6-2.1,2.5-2.7C21.6,14.7,21.2,14.6,21,14.6L21,14.6z"/>
			</g>
			<g>
				<polygon class="st0" points="23.7,14.7 21.7,14.7 21.7,1 23.7,1 23.7,14.7 				"/>
			</g>
		</g>
		<g>
			<path class="st0" d="M7.9,10.2c-0.2,0-0.4-0.1-0.6-0.2C7.1,9.8,6.9,9.5,6.9,9.2V4.6c0-0.5,0.3-0.9,0.8-1L22.4,0
				c0.3-0.1,0.6,0,0.9,0.2c0.2,0.2,0.4,0.5,0.4,0.8v4.6c0,0.5-0.3,0.9-0.8,1L8.2,10.2C8.1,10.2,8,10.2,7.9,10.2L7.9,10.2z M8.9,5.4
				v2.6l12.8-3.1V2.3L8.9,5.4L8.9,5.4z"/>
		</g>
	</g>
	<g>
		<g>
			<g>
				<path class="st0" d="M2.7,23.6c-1.4,0-2.4-0.7-2.7-1.9c-0.3-1.9,1.6-3.9,3.6-4.8c0.9-0.4,1.8-0.6,2.6-0.6c1.4,0,2.4,0.7,2.7,1.9
					C9.2,20,7.3,22,5.3,22.9C4.4,23.3,3.5,23.6,2.7,23.6L2.7,23.6z M6.2,18.2c-0.5,0-1.1,0.2-1.7,0.5c-1.6,0.8-2.6,2.1-2.5,2.7
					c0,0.2,0.4,0.2,0.7,0.2c0.5,0,1.1-0.2,1.7-0.5C6.1,20.3,7,19,6.9,18.4C6.9,18.3,6.5,18.2,6.2,18.2L6.2,18.2z"/>
			</g>
			<g>
				<polygon class="st0" points="8.9,18.3 6.9,18.3 6.9,4.6 8.9,4.6 8.9,18.3 				"/>
			</g>
		</g>
		<g>
			<g>
				<path class="st0" d="M17.4,20c-1.4,0-2.4-0.7-2.7-1.9c-0.3-1.9,1.6-3.9,3.6-4.8c0.9-0.4,1.8-0.6,2.6-0.6c1.4,0,2.4,0.7,2.7,1.9
					c0.3,1.9-1.6,3.9-3.6,4.8C19.1,19.7,18.2,20,17.4,20L17.4,20z M21,14.6c-0.5,0-1.1,0.2-1.7,0.5c-1.6,0.8-2.6,2.1-2.5,2.7
					c0,0.2,0.4,0.2,0.7,0.2c0.5,0,1.1-0.2,1.7-0.5c1.6-0.8,2.6-2.1,2.5-2.7C21.6,14.7,21.2,14.6,21,14.6L21,14.6z"/>
			</g>
			<g>
				<polygon class="st0" points="23.7,14.7 21.7,14.7 21.7,1 23.7,1 23.7,14.7 				"/>
			</g>
		</g>
		<g>
			<path class="st0" d="M7.9,10.2c-0.2,0-0.4-0.1-0.6-0.2C7.1,9.8,6.9,9.5,6.9,9.2V4.6c0-0.5,0.3-0.9,0.8-1L22.4,0
				c0.3-0.1,0.6,0,0.9,0.2c0.2,0.2,0.4,0.5,0.4,0.8v4.6c0,0.5-0.3,0.9-0.8,1L8.2,10.2C8.1,10.2,8,10.2,7.9,10.2L7.9,10.2z M8.9,5.4
				v2.6l12.8-3.1V2.3L8.9,5.4L8.9,5.4z"/>
		</g>
	</g>
</g>
</svg>
