<?xml version="1.0" encoding="utf-8"?>
<!-- Generator: Adobe Illustrator 19.0.0, SVG Export Plug-In . SVG Version: 6.00 Build 0)  -->
<svg version="1.1" id="Layer_3" xmlns="http://www.w3.org/2000/svg" xmlns:xlink="http://www.w3.org/1999/xlink" x="0px" y="0px"
	 width="26px" height="19.6px" viewBox="0 0 26 19.6" style="enable-background:new 0 0 26 19.6;" xml:space="preserve">
<style type="text/css">
	.st0{fill:#F2EEE8;}
</style>
<g>
	<g>
		<path class="st0" d="M22,19.6h-6.4c-0.6,0-1-0.4-1-1v-6.3h-3.2v6.3c0,0.6-0.4,1-1,1H4c-0.6,0-1-0.4-1-1V8.2c0-0.6,0.4-1,1-1
			c0.6,0,1,0.4,1,1v9.4h4.4v-6.3c0-0.6,0.4-1,1-1h5.2c0.6,0,1,0.4,1,1v6.3H21V8.2c0-0.6,0.4-1,1-1s1,0.4,1,1v10.4
			C23,19.1,22.6,19.6,22,19.6L22,19.6z"/>
	</g>
	<g>
		<path class="st0" d="M25,10.6c-0.2,0-0.4-0.1-0.6-0.2L13,2.2L1.6,10.4c-0.4,0.3-1.1,0.2-1.4-0.2C-0.1,9.7,0,9.1,0.4,8.8l12-8.6
			c0.3-0.2,0.8-0.2,1.2,0l12,8.6c0.4,0.3,0.6,0.9,0.2,1.4C25.6,10.5,25.3,10.6,25,10.6L25,10.6z"/>
	</g>
</g>
</svg>
