<?xml version="1.0" encoding="utf-8"?>
<!-- Generator: Adobe Illustrator 19.0.0, SVG Export Plug-In . SVG Version: 6.00 Build 0)  -->
<svg version="1.1" id="Layer_3" xmlns="http://www.w3.org/2000/svg" xmlns:xlink="http://www.w3.org/1999/xlink" x="0px" y="0px"
	 width="25px" height="16.4px" viewBox="0 0 25 16.4" style="enable-background:new 0 0 25 16.4;" xml:space="preserve">
<style type="text/css">
	.st0{fill:#F2EEE8;}
</style>
<g>
	<g>
		<path class="st0" d="M12.2,11.8c-0.1,0-0.3,0-0.4-0.1L0.6,6.8C0.2,6.6,0,6.3,0,5.9C0,5.5,0.2,5.1,0.6,5l11.2-4.9
			c0.3-0.1,0.5-0.1,0.8,0L23.8,5c0.4,0.2,0.6,0.5,0.6,0.9c0,0.4-0.2,0.8-0.6,0.9l-11.2,4.9C12.5,11.7,12.3,11.8,12.2,11.8L12.2,11.8
			z M3.5,5.9l8.7,3.8l8.7-3.8l-8.7-3.8L3.5,5.9L3.5,5.9z"/>
	</g>
	<g>
		<path class="st0" d="M12.2,16.4c-3,0-6.1-0.9-8.8-2.7C3.2,13.5,3,13.2,3,12.8V7.5c0-0.6,0.4-1,1-1s1,0.4,1,1v4.8
			c4.5,2.8,9.9,2.8,14.4,0V7.5c0-0.6,0.4-1,1-1c0.6,0,1,0.4,1,1v5.3c0,0.3-0.2,0.6-0.4,0.8C18.3,15.5,15.2,16.4,12.2,16.4L12.2,16.4
			z"/>
	</g>
	<g>
		<path class="st0" d="M24,13.7c-0.3,0-0.5-0.2-0.5-0.5V5.8c0-0.3,0.2-0.5,0.5-0.5c0.3,0,0.5,0.2,0.5,0.5v7.3
			C24.5,13.4,24.2,13.7,24,13.7L24,13.7z"/>
	</g>
	<g>
		<path class="st0" d="M24,14.2c-0.6,0-1-0.4-1-1V9.7c0-0.6,0.4-1,1-1c0.6,0,1,0.4,1,1v3.5C25,13.7,24.5,14.2,24,14.2L24,14.2z"/>
	</g>
</g>
</svg>
