<?xml version="1.0" encoding="utf-8"?>
<!-- Generator: Adobe Illustrator 19.0.0, SVG Export Plug-In . SVG Version: 6.00 Build 0)  -->
<svg version="1.1" id="Layer_3" xmlns="http://www.w3.org/2000/svg" xmlns:xlink="http://www.w3.org/1999/xlink" x="0px" y="0px"
	 width="18.3px" height="22.6px" viewBox="0 0 18.3 22.6" style="enable-background:new 0 0 18.3 22.6;" xml:space="preserve">
<style type="text/css">
	.st0{fill:#F2EEE8;}
</style>
<g>
	<g>
		<path class="st0" d="M15.9,16c-0.1,0-0.3,0-0.4-0.1c-0.7-0.3-1.5-0.6-2.3-0.8l0.5-1.9c0.6,0.2,1.1,0.3,1.7,0.6
			c0.4-1.1,0.7-2.3,0.7-3.5C16.1,5.7,13,2,9.1,2c-3.8,0-6.9,3.7-6.9,8.2c0,1.2,0.2,2.4,0.7,3.5c0.5-0.2,1.1-0.4,1.7-0.6l0.5,1.9
			c-0.8,0.2-1.6,0.5-2.3,0.8c-0.5,0.2-1.1,0-1.3-0.4c-0.9-1.6-1.3-3.4-1.3-5.3C0.2,4.6,4.2,0,9.1,0c4.9,0,8.9,4.6,8.9,10.2
			c0,1.9-0.5,3.7-1.3,5.3C16.6,15.8,16.2,16,15.9,16L15.9,16z"/>
	</g>
	<g>
		<path class="st0" d="M9.1,17.2c-0.2,0-0.3,0-0.5,0C6,16.9,4,14.4,3.2,10.3C3.1,9.9,3,9.5,3,9.1c0-0.1,0-0.3,0.1-0.4
			c0.1-0.1,0.2-0.2,0.4-0.2h2.7l0.4-3.2c0-0.2,0.2-0.4,0.5-0.4c0.2,0,0.5,0.2,0.5,0.4l0.4,3.2h0.7L9,7c0-0.3,0.2-0.5,0.5-0.5l0,0
			C9.8,6.6,10,6.8,10,7l0.2,1.5h4.6c0.1,0,0.3,0.1,0.4,0.2c0.1,0.1,0.1,0.2,0.1,0.4c0,0.4-0.1,0.8-0.2,1.2c-0.5,2.2-1.2,3.9-2.3,5.1
			c0,0,0,0,0,0c-0.1,0.1-0.2,0.2-0.2,0.2l-0.4-0.3l0.4,0.3c-0.2,0.2-0.3,0.3-0.4,0.3l-0.4-0.3l0.3,0.4c-0.1,0.1-0.2,0.2-0.4,0.2
			c0,0-0.1,0.1-0.1,0.1c-0.1,0.1-0.2,0.1-0.4,0.2c0,0-0.1,0.1-0.1,0.1c-0.1,0-0.2,0.1-0.3,0.1l-0.1,0c-0.1,0-0.2,0.1-0.3,0.1
			l-0.3-0.4l0.1,0.5c0,0-0.1,0-0.1,0c-0.1,0-0.2,0-0.3,0.1l-0.2,0C9.5,17.2,9.4,17.2,9.1,17.2L9.1,17.2L9.1,17.2z M9.5,16.2l0.2,0.5
			l-0.1-0.5c0.1,0,0.2,0,0.2,0l0.2,0.5L10,16.1c0.1,0,0.2-0.1,0.3-0.1c0.2-0.1,0.3-0.1,0.4-0.1c0.2-0.1,0.3-0.1,0.4-0.2
			c0.2-0.1,0.3-0.2,0.4-0.2c0.2-0.1,0.3-0.2,0.3-0.3l0.1-0.1c0.1-0.1,0.2-0.2,0.2-0.2l0,0c0,0,0,0,0,0c0.9-1,1.6-2.6,2.1-4.6
			c0-0.2,0.1-0.4,0.1-0.6H9.7c-0.1,0-0.1,0-0.2,0c-0.1,0-0.1,0-0.2,0H7.7c-0.3,0-0.5-0.2-0.5-0.4l0-0.1l0,0.1c0,0.2-0.2,0.4-0.5,0.4
			H4.1c0,0.2,0.1,0.4,0.1,0.6c0.7,3.6,2.4,5.8,4.6,6c0.1,0,0.3,0,0.4,0C9.3,16.2,9.4,16.2,9.5,16.2L9.5,16.2z"/>
	</g>
	<g>
		<g>
			<path class="st0" d="M2,22.6H0c0-3.7,3.2-6.8,7.2-6.8v2C4.3,17.9,2,20,2,22.6L2,22.6z"/>
		</g>
		<g>
			<path class="st0" d="M18.3,22.6h-2c0-2.6-2.3-4.8-5.2-4.8v-2C15,15.9,18.3,18.9,18.3,22.6L18.3,22.6z"/>
		</g>
	</g>
	<g>
		<path class="st0" d="M7,10.3c-0.3,0-0.6,0.3-0.6,0.6c0,0.3,0.3,0.6,0.6,0.6c0.3,0,0.6-0.3,0.6-0.6C7.6,10.6,7.4,10.3,7,10.3
			L7,10.3z"/>
		<path class="st0" d="M11.2,10.3c-0.3,0-0.6,0.3-0.6,0.6c0,0.3,0.3,0.6,0.6,0.6c0.3,0,0.6-0.3,0.6-0.6
			C11.8,10.6,11.6,10.3,11.2,10.3L11.2,10.3z"/>
	</g>
</g>
</svg>
