<?xml version="1.0" encoding="utf-8"?>
<!-- Generator: Adobe Illustrator 19.0.0, SVG Export Plug-In . SVG Version: 6.00 Build 0)  -->
<svg version="1.1" id="Layer_3" xmlns="http://www.w3.org/2000/svg" xmlns:xlink="http://www.w3.org/1999/xlink" x="0px" y="0px"
	 width="21.8px" height="23.5px" viewBox="0 0 21.8 23.5" style="enable-background:new 0 0 21.8 23.5;" xml:space="preserve">
<style type="text/css">
	.st0{fill:#F2EEE8;}
</style>
<g>
	<g>
		<path class="st0" d="M20.8,20.6H1c-0.6,0-1-0.4-1-1V7c0-3.9,3.1-7,7-7h7.8c3.9,0,7,3.1,7,7v12.6C21.8,20.1,21.3,20.6,20.8,20.6
			L20.8,20.6z M2,18.6h17.8V7c0-2.8-2.2-5-5-5H7C4.2,2,2,4.2,2,7V18.6L2,18.6z"/>
	</g>
	<g>
		<g>
			<path class="st0" d="M5,23.5c-1.9,0-3-0.6-3-1.6v-1.4c0-0.6,0.4-1,1-1s1,0.4,1,1v0.9c0.2,0.1,0.6,0.1,1,0.1c0.4,0,0.8-0.1,1-0.1
				v-0.9c0-0.6,0.4-1,1-1s1,0.4,1,1v1.4C8,22.9,6.9,23.5,5,23.5L5,23.5z"/>
		</g>
		<g>
			<path class="st0" d="M16.7,23.5c-1.9,0-3-0.6-3-1.6v-1.4c0-0.6,0.4-1,1-1s1,0.4,1,1v0.9c0.2,0.1,0.6,0.1,1,0.1
				c0.4,0,0.8-0.1,1-0.1v-0.9c0-0.6,0.4-1,1-1s1,0.4,1,1v1.4C19.7,22.9,18.6,23.5,16.7,23.5L16.7,23.5z"/>
		</g>
	</g>
	<g>
		<path class="st0" d="M15.7,4.9H6c-0.6,0-1-0.4-1-1c0-0.6,0.4-1,1-1h9.7c0.6,0,1,0.4,1,1C16.7,4.5,16.3,4.9,15.7,4.9L15.7,4.9z"/>
	</g>
	<g>
		<path class="st0" d="M6.1,13.6c-0.8,0-1.5,0.7-1.5,1.5s0.7,1.5,1.5,1.5s1.5-0.7,1.5-1.5S7,13.6,6.1,13.6L6.1,13.6z"/>
		<path class="st0" d="M15.6,13.6c-0.8,0-1.5,0.7-1.5,1.5s0.7,1.5,1.5,1.5s1.5-0.7,1.5-1.5S16.5,13.6,15.6,13.6L15.6,13.6z"/>
	</g>
	<g>
		<path class="st0" d="M17.8,12.9H4c-0.8,0-1.5-0.7-1.5-1.5V7c0-0.8,0.7-1.5,1.5-1.5h13.8c0.8,0,1.5,0.7,1.5,1.5v4.4
			C19.3,12.2,18.6,12.9,17.8,12.9L17.8,12.9z M4,6.5C3.7,6.5,3.5,6.7,3.5,7v4.4c0,0.3,0.2,0.5,0.5,0.5h13.8c0.3,0,0.5-0.2,0.5-0.5V7
			c0-0.3-0.2-0.5-0.5-0.5H4L4,6.5z"/>
	</g>
</g>
</svg>
